<svg xmlns="http://www.w3.org/2000/svg" viewBox="12 14 96 96" role="img"><title>TQR</title><polygon points="60,62 20.16,39 60,16 99.84,39" fill="#9ecbff"/><g transform="matrix(-4.43 -2.56 4.43 -2.56 60 62)" fill="#0d1117"><path fill-rule="evenodd" d="M1 1h7v7H1zM2 2v5h5V2z"/><rect x="3" y="3" width="3" height="3"/></g><polygon points="60,62 20.16,39 20.16,85 60,108" fill="#1f6feb"/><g transform="matrix(-4.43 -2.56 0 5.11 60 62)" fill="#0d1117"><path fill-rule="evenodd" d="M1 1h7v7H1zM2 2v5h5V2z"/><rect x="3" y="3" width="3" height="3"/></g><polygon points="60,62 99.84,39 99.84,85 60,108" fill="#4493f8"/><g transform="matrix(4.43 -2.56 0 5.11 60 62)" fill="#0d1117"><path fill-rule="evenodd" d="M1 1h7v7H1zM2 2v5h5V2z"/><rect x="3" y="3" width="3" height="3"/></g></svg>
